<svg width="24" height="24" viewBox="0 0 24 24" fill="none" xmlns="http://www.w3.org/2000/svg">
<path d="M4.86621 18.0439C5.31419 17.8982 5.8013 18.1271 5.9541 18.5547C6.10658 18.9821 5.8676 19.4468 5.41992 19.5928C4.75463 19.8093 4.28152 20.0411 3.99316 20.2559C3.69472 20.4783 3.71373 20.5856 3.71387 20.5557C3.71376 20.5238 3.69542 20.6562 4.07227 20.9121C4.42837 21.1539 4.99991 21.4052 5.78223 21.6299C7.33642 22.0763 9.5351 22.3633 12 22.3633C14.4649 22.3633 16.6636 22.0763 18.2178 21.6299C19.0001 21.4052 19.5716 21.1539 19.9277 20.9121C20.3046 20.6562 20.2862 20.5238 20.2861 20.5557C20.2863 20.5856 20.3053 20.4783 20.0068 20.2559C19.7907 20.0949 19.4706 19.9243 19.0439 19.7578L18.5801 19.5928L18.499 19.5625C18.1042 19.3897 17.9029 18.9555 18.0459 18.5547C18.1891 18.154 18.6257 17.9283 19.0488 18.0215L19.1338 18.0439L19.4141 18.1387C20.0562 18.3669 20.6242 18.6409 21.0605 18.9658C21.5476 19.3287 21.9999 19.8589 22 20.5557C21.9998 21.3135 21.4681 21.8724 20.9209 22.2441C20.3518 22.6306 19.5837 22.9449 18.7119 23.1953C16.9571 23.6994 14.5843 24 12 24C9.4157 24 7.04293 23.6994 5.28809 23.1953C4.41633 22.9449 3.64824 22.6306 3.0791 22.2441C2.53187 21.8724 2.00015 21.3135 2 20.5557C2.00012 19.8589 2.45237 19.3287 2.93945 18.9658C3.43824 18.5945 4.10927 18.2903 4.86621 18.0439ZM12.4561 0.0117188C17.1382 0.255587 20.9999 4.22853 21 9.0127C21 14.0551 16.8023 17.4724 13.2764 19.6533L13.251 19.6689C12.918 19.8589 12.546 19.9703 12.1641 19.9951L12 20C11.5609 20 11.1296 19.886 10.749 19.6689L10.7344 19.6602L10.7207 19.6514C7.31831 17.5224 3.26205 14.2826 3.01172 9.48242L3 9.0127C3.0001 4.07405 7.11524 2.4534e-07 12 0L12.4561 0.0117188ZM12 1.62207C8.02932 1.62207 4.63682 4.95936 4.63672 9.0127L4.64551 9.39551C4.85041 13.2972 8.16982 16.1339 11.5752 18.2676C11.7059 18.34 11.8518 18.3779 12 18.3779L12.1133 18.3711C12.2221 18.3569 12.3276 18.3215 12.4248 18.2676C15.9411 16.09 19.3633 13.0993 19.3633 9.0127C19.3632 5.08623 16.1798 1.83078 12.3711 1.63086L12 1.62207ZM12 4.86523C14.2593 4.86523 16.0908 6.67995 16.0908 8.91895C16.0908 11.1579 14.2593 12.9727 12 12.9727C9.74066 12.9727 7.90919 11.1579 7.90918 8.91895C7.90918 6.67995 9.74065 4.86523 12 4.86523ZM12 6.48633C10.6444 6.48633 9.5459 7.57555 9.5459 8.91895C9.54591 10.2623 10.6444 11.3516 12 11.3516C13.3556 11.3516 14.4541 10.2623 14.4541 8.91895C14.4541 7.57555 13.3556 6.48633 12 6.48633Z" fill="white"/>
</svg>
