<svg width="24" height="24" viewBox="0 0 24 24" fill="none" xmlns="http://www.w3.org/2000/svg">
<path fill-rule="evenodd" clip-rule="evenodd" d="M12 6.36328C8.36364 6.36328 5.25818 8.6251 4 11.8178C5.25818 15.0106 8.36364 17.2724 12 17.2724C15.6364 17.2724 18.7418 15.0106 20 11.8178C18.7418 8.6251 15.6364 6.36328 12 6.36328ZM12 15.4542C9.99273 15.4542 8.36364 13.8251 8.36364 11.8178C8.36364 9.81055 9.99273 8.18146 12 8.18146C14.0073 8.18146 15.6364 9.81055 15.6364 11.8178C15.6364 13.8251 14.0073 15.4542 12 15.4542ZM9.81818 11.8178C9.81818 10.6106 10.7927 9.63601 12 9.63601C13.2073 9.63601 14.1818 10.6106 14.1818 11.8178C14.1818 13.0251 13.2073 13.9996 12 13.9996C10.7927 13.9996 9.81818 13.0251 9.81818 11.8178Z" fill="#AAAAAA"/>
</svg>
