<svg width="24" height="24" viewBox="0 0 24 24" fill="none" xmlns="http://www.w3.org/2000/svg">
<path d="M18.1957 5.19466C18.4559 4.93518 18.8769 4.93505 19.1371 5.19466C19.3973 5.45495 19.3972 5.87671 19.1371 6.13705L6.47105 18.804C6.30455 18.9813 6.05427 19.054 5.8187 18.9935C5.5832 18.9329 5.39962 18.7486 5.33921 18.513C5.27883 18.2774 5.35124 18.0271 5.52866 17.8607L7.34116 16.0482C6.07167 15.1277 4.97479 13.9895 4.1019 12.6869C3.96594 12.4701 3.9658 12.1945 4.1019 11.9779C4.2299 11.7745 7.28644 6.99935 12.0003 6.99935C13.2193 7.01169 14.4169 7.32068 15.4896 7.89974L18.1957 5.19466ZM17.7103 9.45052C18.5434 10.197 19.2783 11.0464 19.8978 11.9779C20.034 12.1946 20.0338 12.4701 19.8978 12.6869C19.7698 12.8902 16.714 17.6651 12.0003 17.6654C11.2678 17.6608 10.5398 17.5432 9.84312 17.3167L17.7103 9.45052ZM12.0003 9.66634C10.5277 9.66634 9.33348 10.8597 9.33335 12.3324C9.33627 12.8058 9.46875 13.2696 9.71616 13.6732L13.3412 10.0482C12.9376 9.80055 12.4738 9.6689 12.0003 9.66634Z" fill="#D0C9D6"/>
</svg>
